<svg xmlns="http://www.w3.org/2000/svg" xmlns:xlink="http://www.w3.org/1999/xlink" version="1.1" width="26px" height="26px"
	 viewBox="0 0 120 120" xml:space="preserve">

<defs>
</defs>
<g style="stroke: none; stroke-width: 0; stroke-dasharray: none; stroke-linecap: butt; stroke-linejoin: miter; stroke-miterlimit: 10; fill: none; fill-rule: nonzero; opacity: 1;" transform="translate(1.4065934065934016 1.4065934065934016) scale(1 1)" >
	<path d="M 36.203 35.438 v -3.51 c -1.218 -0.173 -2.447 -0.262 -3.677 -0.268 c -15.047 0 -27.289 12.244 -27.289 27.291 c 0 9.23 4.613 17.401 11.65 22.342 c -4.712 -5.039 -7.332 -11.681 -7.328 -18.58 C 9.559 47.88 21.453 35.784 36.203 35.438" style="stroke: none; stroke-width: 1; stroke-dasharray: none; stroke-linecap: butt; stroke-linejoin: miter; stroke-miterlimit: 10; fill: rgb(0,242,234); fill-rule: nonzero; opacity: 1;" transform=" matrix(1 0 0 1 0 0) " stroke-linecap="round" />
	<path d="M 36.847 75.175 c 6.714 0 12.19 -5.341 12.44 -11.997 l 0.023 -59.417 h 10.855 c -0.232 -1.241 -0.349 -2.5 -0.35 -3.762 H 44.989 l -0.025 59.419 c -0.247 6.654 -5.726 11.993 -12.438 11.993 c -2.015 0.001 -4 -0.49 -5.782 -1.431 C 29.079 73.238 32.839 75.171 36.847 75.175 M 80.441 23.93 v -3.302 c -3.989 0.004 -7.893 -1.157 -11.232 -3.339 c 2.928 3.371 6.869 5.701 11.234 6.641" style="stroke: none; stroke-width: 1; stroke-dasharray: none; stroke-linecap: butt; stroke-linejoin: miter; stroke-miterlimit: 10; fill: rgb(0,242,234); fill-rule: nonzero; opacity: 1;" transform=" matrix(1 0 0 1 0 0) " stroke-linecap="round" />
	<path d="M 69.209 17.286 c -3.272 -3.744 -5.075 -8.549 -5.073 -13.522 h -3.972 C 61.203 9.318 64.472 14.205 69.209 17.286 M 32.526 46.486 c -6.88 0.008 -12.455 5.583 -12.463 12.463 c 0.004 4.632 2.576 8.88 6.679 11.032 c -1.533 -2.114 -2.358 -4.657 -2.358 -7.268 c 0.007 -6.88 5.582 -12.457 12.463 -12.465 c 1.284 0 2.515 0.212 3.677 0.577 V 35.689 c -1.218 -0.173 -2.447 -0.262 -3.677 -0.268 c -0.216 0 -0.429 0.012 -0.643 0.016 v 11.626 C 35.014 46.685 33.774 46.49 32.526 46.486" style="stroke: none; stroke-width: 1; stroke-dasharray: none; stroke-linecap: butt; stroke-linejoin: miter; stroke-miterlimit: 10; fill: rgb(255,0,79); fill-rule: nonzero; opacity: 1;" transform=" matrix(1 0 0 1 0 0) " stroke-linecap="round" />
	<path d="M 80.441 23.93 v 11.523 c -7.689 0 -14.81 -2.459 -20.627 -6.633 v 30.13 c 0 15.047 -12.24 27.289 -27.287 27.289 c -5.815 0 -11.207 -1.835 -15.639 -4.947 c 5.151 5.555 12.384 8.711 19.959 8.709 c 15.047 0 27.289 -12.242 27.289 -27.287 v -30.13 c 6.009 4.321 13.226 6.642 20.627 6.633 V 24.387 c -1.484 0 -2.927 -0.161 -4.323 -0.46" style="stroke: none; stroke-width: 1; stroke-dasharray: none; stroke-linecap: butt; stroke-linejoin: miter; stroke-miterlimit: 10; fill: rgb(255,0,79); fill-rule: nonzero; opacity: 1;" transform=" matrix(1 0 0 1 0 0) " stroke-linecap="round" />
	<path d="M 59.813 58.949 v -30.13 c 6.009 4.322 13.226 6.642 20.627 6.633 V 23.93 c -4.364 -0.941 -8.305 -3.272 -11.232 -6.644 c -4.737 -3.081 -8.006 -7.968 -9.045 -13.522 H 49.309 l -0.023 59.417 c -0.249 6.654 -5.726 11.995 -12.44 11.995 c -4.007 -0.004 -7.768 -1.938 -10.102 -5.194 c -4.103 -2.151 -6.676 -6.399 -6.681 -11.032 c 0.008 -6.88 5.583 -12.455 12.463 -12.463 c 1.282 0 2.513 0.21 3.677 0.577 V 35.438 C 21.453 35.784 9.559 47.88 9.559 62.713 c 0 7.173 2.787 13.703 7.328 18.58 c 4.578 3.223 10.041 4.95 15.639 4.945 C 47.574 86.238 59.813 73.996 59.813 58.949" style="stroke: none; stroke-width: 1; stroke-dasharray: none; stroke-linecap: butt; stroke-linejoin: miter; stroke-miterlimit: 10; fill: rgb(0,0,0); fill-rule: nonzero; opacity: 1;" transform=" matrix(1 0 0 1 0 0) " stroke-linecap="round" />
</g>
</svg>
